<?xml version="1.0" standalone="no"?>
<!DOCTYPE svg PUBLIC "-//W3C//DTD SVG 20010904//EN"
 "http://www.w3.org/TR/2001/REC-SVG-20010904/DTD/svg10.dtd">
<svg version="1.0" xmlns="http://www.w3.org/2000/svg"
 width="1280.000000pt" height="1280.000000pt" viewBox="0 0 1280.000000 1280.000000"
 preserveAspectRatio="xMidYMid meet">
<metadata>
Created by potrace 1.14, written by Peter Selinger 2001-2017
</metadata>
<g transform="translate(0.000000,1280.000000) scale(0.100000,-0.100000)"
fill="#000000" stroke="none">
<path d="M1087 8643 c-1 -1 -65 -3 -142 -4 -154 -3 -217 -11 -314 -44 -25 -8
-49 -15 -54 -15 -14 0 -142 -73 -202 -115 -86 -61 -235 -221 -235 -251 0 -7
-4 -14 -8 -16 -12 -5 -74 -138 -87 -188 -1 -3 -5 -12 -8 -20 -3 -8 -13 -46
-21 -85 -12 -60 -14 -278 -11 -1530 2 -803 5 -1470 6 -1482 2 -13 7 -23 10
-23 3 0 6 -6 7 -12 1 -15 10 -53 12 -53 1 0 3 -10 6 -22 10 -57 118 -250 165
-295 9 -10 23 -25 31 -35 7 -10 20 -24 29 -31 16 -12 17 19 17 400 0 227 1
429 1 449 l1 35 83 -2 c45 -1 85 -2 88 -3 4 0 7 -223 7 -493 0 -271 1 -502 1
-514 1 -13 13 -26 34 -36 l34 -16 -1 645 c-1 355 2 650 6 656 4 6 2 17 -4 24
-8 10 -3 13 23 14 41 1 130 1 145 0 8 -1 11 -198 11 -696 0 -383 3 -698 6
-702 4 -3 20 -7 36 -8 l29 -3 1 612 c0 336 0 616 1 622 0 8 129 12 172 5 3 -1
6 -205 6 -453 0 -249 1 -531 1 -625 l1 -173 34 0 33 0 -1 73 c-1 39 2 80 7 90
4 9 4 17 0 17 -10 0 -8 133 1 149 4 6 4 11 -1 11 -4 0 -8 58 -8 130 0 71 4
130 8 130 5 0 5 5 1 12 -9 15 -10 139 -1 162 4 11 3 15 -4 10 -8 -4 -7 0 0 15
7 11 8 21 4 21 -4 0 -7 55 -5 122 1 68 2 129 2 136 0 6 -1 45 -2 85 -1 41 1
78 4 83 4 5 44 9 90 9 l83 0 2 -615 c1 -338 2 -621 2 -627 1 -8 15 -13 35 -13
l34 0 0 330 c-1 182 1 333 4 335 5 5 85 8 145 6 l32 -1 0 -267 c0 -148 1 -298
1 -335 l0 -68 103 0 104 0 -1 991 c-1 544 2 998 5 1008 6 15 18 17 80 15 41
-1 79 -2 85 -3 8 -1 11 -285 12 -988 0 -544 1 -996 1 -1005 1 -13 9 -18 30
-18 29 0 49 14 34 23 -5 3 -7 27 -5 54 3 56 3 49 -1 141 -1 39 2 72 6 72 5 0
5 5 1 12 -11 17 -11 108 0 108 5 0 5 5 -1 13 -10 15 -10 97 0 115 5 6 4 12 0
12 -5 0 -7 26 -6 58 2 31 3 63 3 70 0 10 0 73 0 115 0 6 -1 56 -3 110 -1 55 1
101 6 104 4 2 4 10 0 16 -10 16 -10 107 0 107 5 0 5 5 1 12 -11 17 -11 108 -1
108 5 0 5 5 1 12 -11 17 -11 108 0 108 5 0 5 5 -1 13 -10 15 -10 97 0 115 5 6
5 12 0 12 -4 0 -8 23 -8 50 0 28 4 50 8 50 4 0 4 8 -1 18 -4 9 -7 35 -5 57 2
22 3 46 3 53 0 6 0 32 0 57 0 25 0 52 0 60 0 8 0 35 0 60 0 25 0 51 0 58 0 6
-1 35 -3 62 -2 28 1 55 5 62 5 6 5 13 1 16 -10 6 -9 190 1 206 4 6 4 11 -1 11
-10 0 -9 133 1 149 4 6 4 11 -1 11 -10 0 -9 133 1 149 4 6 4 11 -1 11 -6 0 -9
60 -4 91 1 3 41 6 90 7 l89 1 -2 -1375 -1 -1374 40 1 c22 0 36 2 30 5 -5 2 -9
32 -8 66 0 35 2 83 2 108 1 25 1 109 1 188 0 79 3 148 6 154 4 7 2 8 -4 4 -9
-5 -9 0 -3 17 6 14 7 28 4 31 -8 8 -5 174 3 188 4 7 3 8 -4 4 -9 -5 -9 0 -3
17 6 14 7 28 3 31 -4 5 -5 150 -1 184 1 4 0 12 -1 17 -4 19 0 137 5 145 3 5 2
11 -3 13 -4 3 -7 20 -6 39 4 58 5 101 4 182 0 43 3 83 7 89 3 6 1 7 -5 3 -9
-5 -9 0 -3 17 6 14 7 28 4 31 -8 8 -5 174 3 188 4 7 3 8 -4 4 -9 -5 -9 0 -3
17 6 14 7 28 3 31 -4 5 -5 150 -1 184 1 4 0 12 -1 17 -2 10 -1 128 1 143 1 4
0 12 -1 17 -4 19 1 138 6 146 3 5 2 9 -3 9 -4 0 -7 39 -6 87 4 163 4 223 -2
232 -3 6 -1 12 4 16 6 3 8 12 5 19 -7 18 -10 196 -4 196 4 0 4 86 0 100 -2 5
-1 125 1 138 1 4 0 12 -1 17 -1 6 -1 28 -1 50 1 62 1 94 -2 178 -1 42 1 77 4
77 3 0 4 15 2 33 -2 17 -3 64 -3 102 1 39 1 78 1 88 0 17 6 19 109 19 22 0 47
-1 55 -1 12 -1 14 -26 13 -156 0 -86 2 -159 5 -162 4 -3 2 -14 -4 -24 -7 -13
-6 -19 1 -19 6 0 8 -5 5 -10 -8 -14 -10 -419 -2 -427 4 -3 2 -14 -4 -24 -7
-14 -6 -19 2 -19 9 0 9 -3 0 -14 -8 -9 -8 -16 -2 -20 6 -4 7 -14 4 -23 -6 -15
-7 -73 -3 -90 1 -5 2 -12 0 -18 -1 -5 -1 -86 -1 -180 1 -93 1 -192 1 -219 0
-27 -2 -51 -5 -54 -2 -2 0 -13 6 -23 5 -11 6 -19 2 -19 -7 0 -8 -122 -2 -140
1 -3 0 -9 -1 -15 -5 -20 -1 -115 4 -124 4 -5 2 -12 -3 -15 -5 -3 -5 -20 -2
-38 4 -18 4 -50 0 -71 -3 -20 -2 -40 2 -43 5 -3 7 -10 3 -15 -3 -5 -5 -87 -5
-182 1 -94 1 -194 1 -221 0 -27 -2 -51 -5 -54 -2 -2 0 -13 6 -23 5 -11 6 -19
2 -19 -7 0 -9 -250 -2 -285 1 -5 0 -14 -1 -20 -2 -11 -2 -286 1 -300 1 -5 0
-14 -1 -20 -2 -11 -2 -286 1 -300 1 -5 1 -14 -1 -20 -5 -27 -2 -214 4 -224 4
-6 18 -11 30 -11 19 0 25 7 28 30 3 16 1 35 -3 41 -4 6 -3 25 1 40 5 16 5 29
0 29 -9 0 -5 38 4 47 3 3 1 15 -4 28 -5 13 -6 25 -3 28 7 7 7 147 0 154 -3 2
-1 18 3 34 5 16 5 29 0 29 -9 0 -5 38 4 47 3 3 1 15 -4 28 -5 13 -6 25 -3 28
7 7 7 147 0 154 -3 2 -1 18 3 34 5 16 5 29 0 29 -9 0 -5 38 4 47 3 3 1 15 -4
28 -5 13 -6 25 -3 28 8 8 9 137 1 137 -7 0 -3 33 5 48 3 4 1 16 -3 27 -4 11
-4 32 1 48 4 15 4 27 0 27 -9 0 -8 37 1 46 3 3 3 18 -2 32 -4 15 -3 37 1 50 5
13 4 22 -1 22 -5 0 -7 6 -4 13 8 22 10 97 3 97 -4 0 -3 15 1 34 4 19 4 40 -1
47 -4 7 -4 20 1 29 5 9 5 22 0 30 -8 13 -6 48 4 57 3 3 1 15 -4 28 -5 13 -6
25 -3 28 7 8 7 186 0 193 -3 3 -2 16 2 28 5 11 5 30 1 41 -4 11 -3 25 2 32 5
7 5 14 -1 17 -6 4 -7 15 -1 30 4 12 5 29 0 36 -4 7 -4 26 0 41 5 16 5 29 1 29
-9 0 -8 37 1 46 3 3 3 18 -2 32 -4 15 -3 37 1 50 5 13 4 22 -1 22 -5 0 -7 6
-4 13 8 22 10 97 3 97 -4 0 -3 15 1 34 4 19 4 40 -1 47 -4 7 -4 20 1 29 5 9 5
22 0 30 -8 13 -6 48 4 57 3 3 1 15 -4 28 -5 13 -6 26 -2 29 3 4 5 28 3 54 l-2
48 90 2 91 2 0 -412 c1 -227 1 -846 1 -1375 l0 -963 32 0 32 0 0 1007 0 1008
84 0 c48 0 85 -4 87 -10 9 -25 9 -146 0 -155 -6 -6 -6 -10 0 -10 11 0 11 -210
0 -228 -4 -7 -4 -12 1 -12 10 0 9 -212 -1 -228 -4 -7 -4 -12 1 -12 4 0 8 -23
8 -50 0 -28 -4 -50 -8 -50 -5 0 -5 -5 -1 -12 10 -16 11 -68 1 -68 -5 0 -5 -5
-2 -10 10 -16 11 -350 2 -350 -5 0 -5 -5 -1 -11 9 -16 11 -309 1 -309 -5 0 -5
-5 -1 -11 9 -16 11 -309 1 -309 -5 0 -5 -5 -1 -12 4 -6 8 -45 8 -87 l1 -76 35
-5 c19 -3 65 -4 102 -2 l68 4 0 334 0 334 23 1 c12 0 52 1 90 2 l67 2 0 -337
0 -338 35 0 c31 0 35 3 35 28 1 15 2 297 3 627 l2 600 85 0 85 0 5 -118 c3
-65 2 -126 -1 -135 -4 -9 -2 -22 3 -29 6 -7 5 -19 -1 -32 -7 -13 -8 -22 -1
-26 7 -4 7 -12 0 -24 -5 -10 -7 -21 -4 -24 9 -9 10 -71 2 -89 -5 -10 -4 -19 2
-23 7 -4 7 -12 0 -24 -5 -10 -7 -21 -4 -24 5 -5 8 -169 4 -192 -1 -5 -2 -14
-1 -20 3 -14 3 -209 0 -221 -1 -5 -1 -13 0 -19 5 -27 2 -218 -3 -223 -12 -11
18 -32 45 -32 l29 0 1 615 c1 338 2 621 3 628 1 8 26 12 89 12 l87 1 0 -618 0
-619 35 3 35 2 0 698 c0 551 3 698 13 699 17 1 127 1 152 0 17 -1 20 -8 19
-54 0 -29 -3 -58 -7 -64 -4 -6 -3 -14 2 -18 7 -3 7 -15 1 -29 -5 -13 -6 -26
-3 -29 9 -10 10 -72 1 -84 -5 -7 -5 -14 1 -17 7 -4 7 -15 1 -30 -5 -13 -6 -26
-4 -29 10 -10 12 -77 3 -83 -5 -3 -7 -10 -4 -15 8 -13 9 -164 1 -177 -3 -6 -3
-13 2 -16 5 -3 7 -24 5 -48 -5 -57 -5 -57 0 -101 3 -20 2 -39 -2 -42 -7 -3 -7
-38 -1 -55 5 -14 1 -211 -4 -219 -4 -5 -3 -12 2 -15 5 -3 7 -24 5 -48 -2 -24
-4 -50 -3 -58 0 -8 1 -32 1 -53 1 -31 4 -37 18 -31 9 3 24 9 34 11 16 5 17 38
17 519 l0 514 90 -1 90 -1 0 -126 c1 -70 1 -265 1 -434 0 -170 2 -308 5 -308
11 0 74 75 106 125 18 28 35 52 38 55 17 15 90 203 95 245 1 6 5 27 10 48 4
20 9 54 11 75 2 27 5 695 3 832 0 8 0 60 0 115 0 55 0 107 0 115 0 8 0 62 1
120 1 58 0 110 -1 115 -1 6 -1 14 0 18 1 5 1 253 1 550 -1 298 -1 551 -1 562
2 280 -4 448 -18 493 -5 18 -10 35 -10 37 1 16 -15 75 -28 105 -30 70 -58 125
-65 128 -5 2 -8 12 -8 22 0 10 -3 20 -7 22 -5 2 -27 28 -50 58 -86 113 -171
186 -294 252 -65 35 -169 75 -219 85 -88 17 -143 21 -285 22 -262 3 -2407 6
-2408 4z m1208 -430 c22 -45 42 -54 152 -62 13 -1 2 -17 -39 -58 -31 -32 -54
-65 -53 -73 2 -8 6 -35 9 -60 4 -25 9 -53 12 -63 5 -15 -7 -12 -65 18 l-71 35
-58 -30 c-66 -35 -87 -38 -77 -12 4 9 9 33 11 52 3 19 7 43 10 52 4 12 -12 36
-47 73 -29 30 -50 58 -47 61 4 3 26 7 50 10 23 2 52 6 63 8 11 3 23 5 27 5 4
1 21 32 39 71 l33 69 16 -27 c8 -15 24 -46 35 -69z"/>
<path d="M6185 8229 c-44 -9 -95 -22 -112 -27 -18 -6 -33 -8 -33 -4 0 4 -4 2
-8 -4 -4 -5 -29 -18 -57 -28 -80 -29 -217 -109 -294 -171 -30 -24 -128 -123
-156 -156 -43 -52 -145 -222 -145 -242 0 -2 101 -4 225 -4 l225 0 60 58 c33
33 62 59 65 59 2 0 21 12 42 26 59 40 151 79 233 99 88 22 250 24 320 4 25 -7
50 -13 56 -15 6 -1 29 -10 50 -20 22 -11 41 -19 44 -19 6 0 78 -44 98 -60 74
-57 208 -218 216 -259 2 -6 10 -28 19 -48 8 -20 17 -47 19 -59 l3 -21 -570 0
c-313 0 -572 -4 -575 -8 -4 -6 -5 -344 -1 -371 1 -3 259 -5 574 -4 314 0 577
-1 584 -3 13 -4 7 -27 -25 -108 -77 -191 -238 -344 -442 -419 -62 -23 -95 -28
-192 -31 -65 -2 -129 1 -144 6 -15 6 -43 13 -62 16 -78 13 -244 113 -327 198
l-30 31 -228 0 c-169 0 -227 -3 -227 -12 0 -18 58 -121 103 -183 57 -79 185
-201 266 -254 38 -25 75 -46 80 -46 6 0 11 -4 11 -10 0 -5 4 -10 10 -10 5 0
38 -13 72 -28 64 -30 177 -66 236 -76 17 -3 47 -9 65 -12 68 -14 242 -9 367
10 8 1 42 11 75 21 33 10 62 19 65 20 149 34 412 224 526 380 16 22 31 42 34
45 7 6 71 117 87 150 33 68 73 180 72 200 0 3 4 17 10 32 6 15 13 49 17 75 10
63 11 295 2 354 -18 124 -74 281 -139 388 -73 123 -84 137 -184 236 -79 80
-108 104 -153 131 -18 10 -32 22 -32 26 0 4 -5 8 -10 8 -6 0 -27 11 -48 24
-20 12 -40 24 -44 25 -4 1 -34 13 -65 27 -66 30 -56 27 -188 58 -126 30 -317
32 -440 5z"/>
<path d="M10317 8244 c-1 -1 -28 -5 -60 -8 -32 -3 -62 -8 -67 -11 -5 -3 -21
-7 -37 -9 -73 -10 -211 -64 -316 -125 -97 -55 -233 -173 -312 -272 -34 -42
-105 -149 -105 -159 0 -5 -9 -24 -19 -42 -21 -35 -73 -168 -66 -168 2 0 -3
-16 -11 -35 -8 -19 -12 -35 -9 -35 2 0 0 -12 -6 -26 -30 -80 -30 -342 0 -468
6 -22 8 -44 5 -48 -3 -4 0 -8 5 -8 6 0 10 -3 9 -7 -10 -45 152 -373 185 -373
6 0 8 -3 4 -6 -12 -12 132 -157 227 -228 158 -118 391 -204 568 -210 21 0 38
-4 38 -7 0 -3 23 -3 50 1 28 4 53 3 56 -2 3 -5 10 -6 15 -2 5 3 33 8 62 11 61
6 92 11 92 13 0 1 11 4 25 5 23 3 102 27 140 42 8 4 17 7 20 8 62 21 152 69
237 127 74 49 233 198 233 217 0 5 6 14 13 18 18 12 80 109 120 189 50 100 97
256 100 332 1 12 3 22 7 22 3 0 4 55 3 123 -1 112 -3 142 -17 234 -7 48 -47
176 -58 191 -6 6 -8 12 -5 12 10 0 -73 160 -111 215 -38 55 -130 166 -147 177
-6 3 -24 19 -40 35 -78 75 -257 180 -360 213 -22 7 -51 16 -65 21 -42 14 -103
27 -155 35 -47 6 -242 13 -248 8z m213 -398 c128 -17 287 -102 395 -211 39
-39 85 -101 85 -113 0 -6 3 -12 8 -14 9 -4 64 -108 57 -108 -3 0 1 -13 10 -30
9 -16 13 -30 10 -30 -3 0 -1 -8 4 -18 30 -55 36 -323 8 -359 -5 -7 -7 -13 -4
-13 5 0 -12 -58 -30 -100 -3 -8 -7 -21 -9 -28 -1 -7 -23 -45 -48 -85 -180
-288 -503 -415 -816 -321 -30 9 -60 20 -66 25 -6 5 -13 7 -16 4 -3 -3 -11 1
-18 10 -7 8 -17 15 -22 15 -21 0 -118 72 -178 132 -91 91 -176 243 -197 348
-25 130 -25 228 2 360 12 58 81 208 111 237 8 8 14 18 14 23 0 15 118 127 174
164 52 35 186 100 186 91 0 -3 12 0 28 6 15 6 50 13 77 16 28 3 51 6 53 8 4 3
142 -3 182 -9z"/>
<path d="M7897 8204 c-2 -2 -26 -6 -53 -7 l-49 -2 -1 -1072 -1 -1073 199 0
198 0 0 468 0 467 28 -35 c15 -19 80 -109 144 -200 65 -91 125 -176 135 -189
16 -21 92 -128 289 -403 l76 -108 241 0 c228 0 239 1 225 18 -8 9 -88 116
-178 237 -90 121 -167 222 -172 223 -4 2 -8 8 -8 13 0 6 -25 41 -55 79 -30 38
-55 71 -55 74 0 6 -15 25 -62 81 -16 18 -28 37 -28 43 0 6 -4 12 -8 14 -4 2
-43 50 -86 108 -43 58 -87 118 -99 134 -56 72 -56 67 3 142 30 38 57 71 62 72
4 2 8 9 8 15 0 7 16 29 35 50 18 20 31 37 27 37 -4 0 -2 4 3 8 6 4 40 45 75
92 36 47 67 87 70 90 3 3 34 43 70 90 35 47 70 91 77 98 7 7 13 16 13 20 0 4
14 23 31 42 17 19 41 51 54 70 13 19 37 51 54 70 17 19 31 38 31 41 0 3 10 17
23 31 21 24 40 48 92 118 25 34 35 64 14 43 -8 -8 -20 -8 -35 -3 -13 5 -24 6
-24 1 0 -5 -17 -5 -38 -1 -21 3 -47 3 -58 0 -10 -4 -29 -4 -41 1 -15 5 -23 5
-23 -2 0 -6 -4 -8 -9 -5 -9 6 -43 7 -136 5 -27 -1 -54 0 -60 1 -5 1 -15 2 -22
1 -14 -1 -103 -114 -103 -130 0 -6 -3 -11 -7 -11 -5 0 -19 -17 -33 -37 -14
-21 -30 -45 -37 -53 -7 -8 -50 -69 -97 -135 -47 -66 -89 -124 -93 -130 -15
-17 -127 -176 -145 -203 -9 -15 -21 -31 -25 -37 -5 -5 -31 -41 -58 -80 -94
-133 -85 -171 -85 353 l0 463 -32 -1 c-18 0 -40 0 -48 0 -8 1 -49 0 -90 0 -41
-1 -85 1 -97 4 -11 2 -23 2 -26 0z"/>
<path d="M6930 5522 c0 -5 -10 -8 -22 -7 -38 3 -120 -20 -183 -51 -80 -39
-171 -131 -213 -216 -42 -84 -47 -109 -46 -238 0 -100 2 -109 36 -180 20 -41
53 -95 74 -119 45 -52 151 -131 175 -131 10 0 20 -4 23 -9 3 -5 23 -12 43 -16
21 -5 45 -10 53 -12 14 -3 93 -4 135 -2 36 2 129 30 170 52 136 74 247 234
259 375 3 26 5 49 7 52 2 7 2 8 -5 65 -30 228 -210 408 -431 430 -31 3 -61 8
-66 11 -5 3 -9 1 -9 -4z m151 -213 c103 -52 169 -156 174 -273 4 -97 -23 -165
-91 -231 -65 -64 -70 -67 -129 -86 -168 -52 -353 53 -390 221 -8 33 -8 98 -1
130 19 90 38 126 102 186 93 90 224 110 335 53z"/>
<path d="M10188 5515 c-2 -2 -16 -5 -33 -8 -43 -7 -145 -48 -145 -58 0 -5 -6
-9 -13 -9 -25 0 -185 -170 -160 -170 4 0 3 -4 -3 -8 -29 -19 -57 -127 -59
-227 -2 -56 2 -105 7 -112 6 -7 8 -13 5 -13 -3 0 1 -16 9 -35 8 -19 11 -35 7
-35 -5 0 -3 -4 2 -8 6 -4 19 -25 30 -46 11 -22 47 -67 80 -100 160 -163 397
-195 594 -79 40 23 125 102 157 144 20 27 61 124 73 172 14 59 15 212 1 212
-1 0 -3 11 -6 25 -14 80 -115 220 -199 277 -68 45 -166 76 -257 78 -48 2 -88
1 -90 0z m172 -191 c58 -22 122 -73 162 -132 18 -26 31 -49 30 -52 -1 -3 3
-20 9 -39 7 -19 9 -63 6 -100 -5 -65 -39 -161 -57 -161 -6 0 -10 -4 -10 -10 0
-19 -66 -73 -119 -98 -37 -17 -72 -25 -115 -25 -60 -1 -156 20 -156 35 0 3 -8
9 -17 12 -34 11 -82 63 -110 117 -24 48 -28 65 -27 144 0 107 20 159 87 228
44 47 112 87 146 87 11 0 22 4 25 8 8 13 96 4 146 -14z"/>
<path d="M5346 5482 c-2 -4 -4 -79 -3 -168 0 -88 -3 -166 -7 -172 -4 -7 -4
-12 1 -12 4 0 7 -128 6 -285 l-1 -285 37 2 c21 0 43 -2 49 -6 6 -3 13 -2 17 3
3 6 15 7 29 1 12 -4 27 -5 33 -2 7 5 10 89 9 235 -1 126 2 231 7 234 4 2 4 9
1 15 -9 14 -11 188 -2 188 3 0 12 -17 18 -37 6 -21 15 -47 20 -58 5 -11 16
-40 24 -65 8 -25 38 -110 66 -190 28 -80 63 -179 77 -220 14 -41 30 -80 35
-86 11 -15 57 -24 63 -13 3 4 18 4 34 -1 37 -10 44 -4 66 55 10 28 23 56 28
63 5 6 7 12 4 12 -3 0 8 37 24 83 17 45 49 134 71 197 22 63 53 151 68 195
l29 80 1 -45 c0 -25 2 -180 3 -345 l2 -300 85 0 85 0 2 467 2 466 -116 -1
-115 -2 -14 -35 c-7 -19 -31 -89 -54 -155 -22 -66 -45 -129 -50 -140 -4 -11
-20 -56 -35 -100 -43 -127 -76 -218 -89 -248 l-13 -27 -16 47 c-31 94 -98 288
-107 308 -11 24 -100 282 -108 310 -2 11 -9 25 -13 31 -10 12 -246 17 -253 6z"/>
<path d="M7559 5476 c-4 -41 -3 -909 1 -914 9 -12 170 -9 171 2 0 6 1 95 1
199 l1 187 169 0 c127 0 168 -3 169 -12 1 -7 3 -92 4 -188 1 -96 3 -179 4
-185 0 -6 37 -10 86 -10 l85 -1 0 467 0 466 -87 -1 -88 -1 0 -187 c0 -182 0
-188 -20 -189 -75 -4 -308 -3 -314 1 -5 3 -8 82 -9 175 0 94 -1 177 -1 186 -1
14 -15 16 -86 16 -53 0 -85 -4 -86 -11z"/>
<path d="M8425 5484 c-8 -3 -12 -723 -6 -917 1 -16 11 -17 98 -15 l97 3 48 80
c27 44 55 94 63 110 8 17 24 46 36 65 12 19 58 98 102 175 45 77 85 142 89
143 4 2 8 11 8 20 1 15 32 62 42 62 2 0 4 -148 4 -330 l-1 -329 84 2 85 2 2
255 c1 140 3 345 5 455 2 110 0 205 -4 211 -4 7 -43 11 -97 12 l-91 0 -32 -55
c-18 -29 -39 -66 -47 -81 -8 -15 -30 -50 -47 -80 -18 -29 -33 -55 -33 -58 0
-3 -15 -28 -33 -57 -18 -29 -38 -63 -45 -77 -7 -14 -33 -59 -57 -100 -25 -41
-55 -94 -67 -117 -12 -24 -25 -43 -28 -43 -4 0 -6 150 -6 333 l0 332 -79 1
c-44 1 -84 0 -90 -2z"/>
<path d="M9275 5482 c-3 -3 -5 -40 -5 -83 0 -81 7 -93 45 -79 11 4 25 3 32 -2
7 -5 14 -5 17 1 4 6 16 7 29 2 12 -4 28 -6 35 -4 6 3 12 -1 13 -9 0 -7 1 -179
2 -383 l2 -370 86 0 86 -1 1 371 c1 438 0 398 11 390 5 -3 12 -1 15 3 3 5 18
7 33 5 52 -8 111 -8 106 0 -2 4 0 7 4 7 7 0 9 115 4 151 -1 7 -509 8 -516 1z"/>
<path d="M10879 5487 c-1 -1 -3 -210 -3 -465 l-2 -462 25 0 c15 0 34 0 44 0 9
0 23 1 30 1 6 1 17 0 22 -1 6 -1 20 -2 33 -1 22 1 22 2 22 176 0 133 3 175 13
175 65 1 168 9 192 15 131 33 209 136 210 275 0 65 -4 82 -30 129 -30 54 -97
121 -122 121 -7 0 -13 5 -13 12 0 6 -3 9 -6 5 -3 -3 -18 -1 -33 5 -20 8 -376
22 -382 15z m285 -171 c95 -3 137 -43 131 -124 -6 -76 -58 -112 -170 -117
l-75 -3 0 123 c0 109 2 124 18 128 9 2 21 1 26 -1 4 -2 36 -5 70 -6z"/>
</g>
</svg>
